<svg width="1000" height="1000" viewBox="0 0 1000 1000" fill="none" xmlns="http://www.w3.org/2000/svg">
<rect width="1000" height="1000" fill="#030025"/>
<path d="M836.03 410.62L813.075 405.455V399.142H872.758V405.455L852.289 410.811L800.449 596.748H759.895L698.873 442.374L711.881 437.975L655.258 596.748H614.704L557.699 413.107L537.422 405.072V399.142H649.902V405.455L627.138 411.385L666.927 552.559L654.876 565.567L709.585 397.038H750.713L810.588 551.411L797.962 565.376L836.03 410.62Z" fill="white"/>
<path d="M462.718 589.096L481.847 583.166V466.286C481.847 459.4 480.763 453.852 478.595 449.644C476.555 445.435 473.431 442.374 469.222 440.462C465.014 438.421 459.594 437.401 452.962 437.401C446.713 437.401 440.465 438.294 434.216 440.079C428.094 441.737 421.909 444.096 415.66 447.157L414.704 443.522C424.523 432.937 432.94 424.457 439.954 418.08C447.096 411.576 453.472 406.73 459.084 403.542C464.822 400.226 470.434 398.058 475.917 397.038C481.529 395.89 487.841 395.316 494.855 395.316C512.582 395.316 525.909 400.226 534.835 410.046C543.89 419.866 548.417 434.149 548.417 452.896V582.783L568.694 589.096V595.026H462.718V589.096ZM441.485 595.026H335.7V589.096L355.977 582.783V365.475C354.319 363.945 352.024 361.84 349.09 359.162C346.157 356.484 342.65 353.36 338.569 349.789C334.488 346.091 329.961 342.01 324.988 337.546V332.19L419.103 310H422.738V378.865V583.166L441.485 589.096V595.026Z" fill="white"/>
<path d="M259.122 470.877L258.739 480.825C247.644 484.778 238.654 488.604 231.767 492.302C224.881 496 219.588 499.89 215.89 503.971C212.319 507.924 209.832 512.26 208.429 516.979C207.154 521.697 206.516 527.054 206.516 533.047C206.516 543.377 208.557 550.901 212.638 555.62C216.846 560.211 222.266 562.506 228.898 562.506C233.234 562.506 236.996 561.614 240.184 559.828C243.372 558.043 245.859 555.237 247.644 551.411C249.43 547.586 250.322 542.612 250.322 536.491V445.627C250.322 435.424 247.517 427.454 241.906 421.715C236.422 415.849 228.069 412.916 216.846 412.916C211.108 412.916 205.815 413.171 200.969 413.681C196.25 414.191 192.233 414.956 188.918 415.976L196.952 404.499C196.059 413.298 195.103 420.631 194.082 426.497C193.062 432.236 191.978 436.891 190.831 440.462C189.683 443.905 188.28 446.711 186.622 448.879C184.582 451.684 181.457 453.98 177.249 455.765C173.168 457.551 168.641 458.443 163.667 458.443C157.035 458.443 152.126 457.359 148.937 455.191C145.749 452.896 144.155 449.835 144.155 446.009C144.155 440.27 147.088 434.404 152.955 428.41C158.821 422.289 166.6 416.678 176.292 411.577C186.112 406.348 197.079 402.139 209.195 398.951C221.31 395.763 233.616 394.169 246.114 394.169C263.33 394.169 277.103 396.656 287.433 401.629C297.891 406.475 305.415 413.49 310.006 422.672C314.597 431.726 316.892 442.438 316.892 454.809V557.724C316.892 560.912 317.402 563.527 318.423 565.567C319.443 567.608 320.909 569.138 322.822 570.158C324.863 571.051 327.222 571.497 329.9 571.497C332.961 571.497 336.022 571.115 339.082 570.349C342.27 569.457 345.522 568.181 348.838 566.524V576.088C339.019 585.27 329.773 591.583 321.101 595.026C312.429 598.342 302.609 600 291.642 600C281.822 600 273.915 598.214 267.921 594.644C262.055 590.945 257.719 585.27 254.914 577.619C252.235 569.839 250.705 559.956 250.322 547.968L253.001 549.69C250.45 560.912 246.624 570.222 241.523 577.619C236.549 585.015 230.492 590.563 223.35 594.261C216.336 597.959 208.429 599.809 199.63 599.809C181.138 599.809 166.919 595.281 156.972 586.227C147.152 577.045 142.242 564.611 142.242 548.925C142.242 541.018 143.581 533.94 146.259 527.691C149.065 521.315 154.421 515.321 162.328 509.71C170.362 503.971 182.095 498.041 197.526 491.919C213.084 485.671 233.616 478.657 259.122 470.877Z" fill="white"/>
</svg>
