<svg width="150" height="150" viewBox="0 0 150 150" fill="none" xmlns="http://www.w3.org/2000/svg">
<path d="M10.2275 130.773H34.0917V72.8168L0 47.248V120.545C0 126.204 4.58533 130.773 10.2275 130.773Z" fill="#030025"/>
<path d="M115.908 130.773H139.772C145.432 130.773 150 126.187 150 120.545V47.248L115.908 72.8168" fill="#030025"/>
<path d="M115.908 28.4963V72.8154L150 47.2467V33.61C150 20.962 135.562 13.7516 125.454 21.337" fill="#030025"/>
<path d="M34.0947 72.8167V28.4976L75.0047 59.1801L115.915 28.4976V72.8167L75.0047 103.499" fill="#030025"/>
<path d="M0 33.61V47.2467L34.0917 72.8154V28.4963L24.546 21.337C14.4208 13.7516 0 20.962 0 33.61Z" fill="#030025"/>
</svg>
