<svg width="150" height="150" viewBox="0 0 150 150" fill="none" xmlns="http://www.w3.org/2000/svg">
<g clip-path="url(#clip0_721_6382)">
<path d="M75.007 0C54.6381 0 52.0818 0.0890939 44.0817 0.453121C36.0973 0.818758 30.6472 2.08279 25.8784 3.93755C20.9455 5.85312 16.7611 8.4156 12.5923 12.5859C8.42044 16.7547 5.85785 20.9391 3.93594 25.8703C2.07654 30.6407 0.810907 36.0922 0.451611 44.0734C0.0937256 52.0735 0 54.6312 0 75C0 95.3688 0.090604 97.9168 0.453121 105.917C0.820369 113.901 2.0844 119.352 3.93755 124.12C5.85473 129.053 8.41732 133.237 12.5876 137.406C16.7549 141.578 20.9393 144.147 25.8691 146.063C30.641 147.917 36.0925 149.182 44.0754 149.547C52.0756 149.911 54.6303 150 74.998 150C95.3678 150 97.9168 149.911 105.917 149.547C113.901 149.182 119.358 147.917 124.13 146.063C129.06 144.147 133.239 141.578 137.406 137.406C141.578 133.237 144.141 129.053 146.063 124.121C147.906 119.352 149.171 113.9 149.547 105.919C149.906 97.9188 150 95.3688 150 75C150 54.6312 149.906 52.075 149.547 44.075C149.171 36.0906 147.906 30.6407 146.063 25.8719C144.141 20.9391 141.578 16.7547 137.406 12.5859C133.234 8.41409 129.062 5.85161 124.124 3.93755C119.344 2.08279 113.89 0.818758 105.906 0.453121C97.9057 0.0890939 95.3587 0 74.9839 0H75.007ZM68.2788 13.5156C70.2757 13.5125 72.5039 13.5156 75.007 13.5156C95.0326 13.5156 97.4054 13.5875 105.314 13.9469C112.626 14.2812 116.595 15.5032 119.239 16.5297C122.739 17.8891 125.234 19.5141 127.857 22.1391C130.483 24.7641 132.108 27.2641 133.47 30.7641C134.497 33.4047 135.72 37.3735 136.053 44.6859C136.412 52.5922 136.491 54.9671 136.491 74.9828C136.491 94.9983 136.412 97.3732 136.053 105.28C135.719 112.593 134.497 116.561 133.47 119.202C132.111 122.702 130.483 125.194 127.857 127.817C125.233 130.443 122.74 132.067 119.239 133.427C116.598 134.457 112.626 135.677 105.314 136.011C97.4074 136.37 95.0326 136.449 75.007 136.449C54.9802 136.449 52.6068 136.37 44.7005 136.011C37.3878 135.673 33.4191 134.451 30.7738 133.425C27.2737 132.065 24.7737 130.441 22.1487 127.816C19.5237 125.191 17.8986 122.697 16.5361 119.196C15.5095 116.555 14.286 112.586 13.9532 105.274C13.5939 97.3671 13.522 94.9923 13.522 74.9641C13.522 54.9359 13.5939 52.5735 13.9532 44.6672C14.2876 37.3547 15.5095 33.386 16.5361 30.7421C17.8955 27.2422 19.5237 24.7421 22.1487 22.1171C24.7737 19.4921 27.2737 17.8672 30.7738 16.5047C33.4176 15.4735 37.3878 14.2547 44.7005 13.9188C51.6193 13.6062 54.3006 13.5125 68.2788 13.4969V13.5156ZM115.042 25.9687C110.073 25.9687 106.042 29.9953 106.042 34.9656C106.042 39.9343 110.073 43.9656 115.042 43.9656C120.011 43.9656 124.042 39.9343 124.042 34.9656C124.042 29.9969 120.011 25.9656 115.042 25.9656V25.9687ZM75.007 36.4843C53.7364 36.4843 36.491 53.7297 36.491 75C36.491 96.2708 53.7364 113.508 75.007 113.508C96.2779 113.508 113.517 96.2708 113.517 75C113.517 53.7297 96.2758 36.4843 75.005 36.4843H75.007ZM75.007 50C88.8131 50 100.008 61.1921 100.008 75C100.008 88.806 88.8131 99.9997 75.007 99.9997C61.1991 99.9997 50.0068 88.806 50.0068 75C50.0068 61.1921 61.1991 50 75.007 50Z" fill="#030025"/>
</g>
<defs>
<clipPath id="clip0_721_6382">
<rect width="150" height="150" fill="white"/>
</clipPath>
</defs>
</svg>
