<svg width="150" height="150" viewBox="0 0 150 150" fill="none" xmlns="http://www.w3.org/2000/svg">
<g clip-path="url(#clip0_721_6344)">
<path fill-rule="evenodd" clip-rule="evenodd" d="M2 0C0.895431 0 0 0.895429 0 2V148C0 149.105 0.895429 150 2 150H148C149.105 150 150 149.105 150 148V2C150 0.895431 149.105 0 148 0H2ZM120.608 62.3204L123.932 63.0683L119.433 81.3566L111.577 61.1016H105.621L98.9172 81.7532L93.6822 63.1791L96.9787 62.3204V61.4063H80.6904V62.265L83.6268 63.4285L91.8817 90.0215H97.7543L104.941 69.8697L112.907 90.0215H118.779L126.286 63.096L129.25 62.3204V61.4063H120.608V62.3204ZM70.3647 88.9158L73.1348 88.0571V71.1318C73.1348 70.1345 72.9778 69.3312 72.6639 68.7218C72.3684 68.1124 71.9159 67.6691 71.3065 67.3921C70.6971 67.0966 69.9122 66.9489 68.9519 66.9489C68.047 66.9489 67.1421 67.0782 66.2372 67.3367C65.6868 67.4858 65.1327 67.6741 64.5752 67.9015V88.0571L67.2899 88.9158V89.7746H51.9712V88.9158L54.9075 88.0017V56.5333C54.6674 56.3117 54.335 56.007 53.9103 55.6192C53.4855 55.2314 52.9776 54.7789 52.3867 54.2618C51.7957 53.7263 51.1401 53.1353 50.4199 52.489V51.7133L64.0488 48.5H64.5752V58.4724V66.602C65.5103 65.629 66.3413 64.812 67.0683 64.1511C68.1024 63.2093 69.0258 62.5075 69.8384 62.0458C70.6694 61.5657 71.482 61.2517 72.2761 61.104C73.0886 60.9378 74.0028 60.8547 75.0185 60.8547C77.5854 60.8547 79.5153 61.5657 80.808 62.9877C82.1192 64.4096 82.7747 66.478 82.7747 69.1927V88.0017L85.7111 88.9158V89.7746H70.3647V88.9158ZM39.9011 73.6896C38.8414 74.1024 37.9457 74.5052 37.2141 74.8981C36.2169 75.4337 35.4505 75.9969 34.9149 76.5879C34.3978 77.1604 34.0377 77.7883 33.8346 78.4716C33.6499 79.1549 33.5576 79.9305 33.5576 80.7985C33.5576 82.2943 33.853 83.3839 34.444 84.0672C35.0534 84.732 35.8383 85.0644 36.7986 85.0644C37.4265 85.0644 37.9713 84.9352 38.4329 84.6766C38.8946 84.4181 39.2547 84.0118 39.5133 83.4578C39.7718 82.9037 39.9011 82.1835 39.9011 81.2971V73.6896ZM39.9011 72.1888C36.7919 73.1597 34.2434 74.0443 32.2556 74.8427C30.0211 75.7292 28.3221 76.5879 27.1586 77.4189C26.0136 78.2315 25.238 79.0995 24.8317 80.0228C24.4439 80.9277 24.25 81.9527 24.25 83.0977C24.25 85.3691 24.961 87.1697 26.383 88.4994C27.8234 89.8105 29.8825 90.4661 32.5603 90.4661C33.8346 90.4661 34.9795 90.1984 35.9952 89.6628C37.0294 89.1273 37.9066 88.3239 38.6268 87.2528C39.1859 86.4422 39.6392 85.4729 39.9867 84.345C40.0936 85.4723 40.2866 86.4416 40.5659 87.2528C40.9722 88.3609 41.6001 89.1826 42.4496 89.7182C43.3176 90.2353 44.4625 90.4938 45.8845 90.4938C47.4727 90.4938 48.8947 90.2538 50.1505 89.7736C51.4063 89.275 52.7452 88.3609 54.1671 87.0312V85.6461C53.687 85.8862 53.2161 86.0709 52.7544 86.2002C52.3112 86.311 51.868 86.3664 51.4247 86.3664C51.0369 86.3664 50.6953 86.3017 50.3998 86.1725C50.1228 86.0247 49.9104 85.8031 49.7627 85.5076C49.6149 85.2122 49.5411 84.8336 49.5411 84.3719V69.4687C49.5411 67.6774 49.2087 66.1261 48.5438 64.815C47.879 63.4853 46.7894 62.4696 45.2751 61.7678C43.7792 61.0476 41.7848 60.6875 39.2917 60.6875C37.4819 60.6875 35.6998 60.9183 33.9454 61.38C32.191 61.8417 30.6028 62.4511 29.1808 63.2083C27.7773 63.947 26.6508 64.7596 25.8013 65.646C24.9518 66.514 24.527 67.3635 24.527 68.1945C24.527 68.7485 24.7579 69.1917 25.2195 69.5241C25.6812 69.8381 26.3922 69.9951 27.3525 69.9951C28.0727 69.9951 28.7283 69.8658 29.3193 69.6072C29.9287 69.3487 30.3812 69.0163 30.6766 68.61C30.9167 68.2961 31.1199 67.8898 31.2861 67.3912C31.4523 66.8741 31.6092 66.2 31.757 65.369C31.8455 64.8603 31.9306 64.2754 32.0125 63.6144C32.2448 63.5751 32.492 63.5414 32.7542 63.513C33.456 63.4391 34.2224 63.4022 35.0534 63.4022C36.6785 63.4022 37.8882 63.827 38.6822 64.6765C39.4948 65.5075 39.9011 66.6617 39.9011 68.1391V72.1888Z" fill="#030025"/>
</g>
<defs>
<clipPath id="clip0_721_6344">
<rect width="150" height="150" fill="white"/>
</clipPath>
</defs>
</svg>
