<svg width="150" height="150" viewBox="0 0 150 150" fill="none" xmlns="http://www.w3.org/2000/svg">
<g clip-path="url(#clip0_721_6391)">
<path fill-rule="evenodd" clip-rule="evenodd" d="M15.625 0C6.99552 0 0 6.99552 0 15.625V134.375C0 143.004 6.99552 150 15.625 150H134.375C143.004 150 150 143.004 150 134.375V15.625C150 6.99552 143.004 0 134.375 0H15.625ZM103.622 118.928H123.215V78.6792C123.215 61.6491 113.56 53.4149 100.077 53.4149C86.5865 53.4149 80.9094 63.9202 80.9094 63.9202V55.3571H62.0269V118.928H80.9094V85.5573C80.9094 76.6156 85.025 71.295 92.9031 71.295C100.145 71.295 103.622 76.4083 103.622 85.5573V118.928ZM27.8572 35.3022C27.8572 41.7803 33.069 47.0329 39.5006 47.0329C45.9322 47.0329 51.1408 41.7803 51.1408 35.3022C51.1408 28.8241 45.9322 23.5714 39.5006 23.5714C33.069 23.5714 27.8572 28.8241 27.8572 35.3022ZM49.4398 118.928H29.7507V55.3571H49.4398V118.928Z" fill="#030025"/>
</g>
<defs>
<clipPath id="clip0_721_6391">
<rect width="150" height="150" fill="white"/>
</clipPath>
</defs>
</svg>
