<svg width="287" height="114" viewBox="0 0 287 114" fill="none" xmlns="http://www.w3.org/2000/svg">
<g clip-path="url(#clip0_641_791)">
<path d="M272.57 39.5303L263.552 37.5011V35.021H287V37.5011L278.958 39.6054L258.592 112.655H242.659L218.685 52.0058L223.796 50.2772L201.55 112.655H185.617L163.222 40.5073L155.255 37.3508V35.021H199.446V37.5011L190.502 39.8309L206.134 95.2943L201.4 100.405L222.894 34.1943H239.052L262.575 94.8434L257.615 100.33L272.57 39.5303Z" fill="#030025"/>
<path d="M125.907 109.649L133.422 107.319V61.4006C133.422 58.695 132.996 56.5156 132.144 54.8622C131.343 53.2088 130.115 52.0064 128.462 51.2548C126.808 50.4532 124.679 50.0524 122.074 50.0524C119.619 50.0524 117.164 50.4031 114.709 51.1045C112.304 51.7559 109.874 52.6828 107.419 53.8852L107.043 52.4573C110.901 48.2988 114.208 44.967 116.963 42.4618C119.769 39.9066 122.274 38.0027 124.479 36.7502C126.733 35.4475 128.938 34.5958 131.092 34.1949C133.297 33.744 135.777 33.5186 138.532 33.5186C145.497 33.5186 150.732 35.4475 154.24 39.3054C157.797 43.1633 159.575 48.7748 159.575 56.1398V107.169L167.542 109.649V111.979H125.907V109.649ZM117.565 111.979H76.0045V109.649L83.9708 107.169V21.7946C83.3195 21.1934 82.4176 20.3667 81.2653 19.3145C80.1129 18.2624 78.7351 17.0348 77.1318 15.632C75.5285 14.179 73.7499 12.5757 71.7959 10.8221V8.71783L108.772 0H110.199V27.0553V107.319L117.565 109.649V111.979Z" fill="#030025"/>
<path d="M45.9189 63.204L45.7686 67.112C41.4097 68.6652 37.8775 70.1683 35.1719 71.6212C32.4664 73.0742 30.3871 74.6023 28.9342 76.2056C27.5313 77.7588 26.5543 79.4623 26.0032 81.3161C25.5022 83.1699 25.2516 85.2742 25.2516 87.629C25.2516 91.6873 26.0533 94.6433 27.6566 96.4971C29.3099 98.3008 31.4393 99.2027 34.0446 99.2027C35.7481 99.2027 37.2261 98.8519 38.4787 98.1505C39.7313 97.4491 40.7083 96.3468 41.4097 94.8437C42.1111 93.3407 42.4618 91.3867 42.4618 88.9817V53.2837C42.4618 49.2755 41.3596 46.1441 39.1551 43.8895C37.0007 41.5848 33.719 40.4325 29.3099 40.4325C27.0553 40.4325 24.9761 40.5327 23.0722 40.7331C21.2184 40.9335 19.6402 41.2341 18.3375 41.6349L21.494 37.1257C21.1432 40.5828 20.7675 43.4636 20.3667 45.7684C19.9658 48.023 19.54 49.8517 19.089 51.2546C18.6381 52.6074 18.087 53.7096 17.4357 54.5613C16.634 55.6636 15.4065 56.5654 13.7531 57.2669C12.1498 57.9683 10.3712 58.319 8.41722 58.319C5.81189 58.319 3.88294 57.8932 2.63038 57.0414C1.37782 56.1396 0.751537 54.9371 0.751537 53.434C0.751537 51.1794 1.90389 48.8747 4.20861 46.5199C6.51332 44.115 9.56957 41.9105 13.3774 39.9064C17.2353 37.8522 21.5441 36.1988 26.3038 34.9462C31.0635 33.6937 35.8984 33.0674 40.8085 33.0674C47.5723 33.0674 52.9834 34.0444 57.0417 35.9984C61.1501 37.9023 64.1061 40.6579 65.9098 44.2653C67.7135 47.8226 68.6153 52.0312 68.6153 56.8911V97.3238C68.6153 98.5764 68.8157 99.6035 69.2166 100.405C69.6174 101.207 70.1936 101.808 70.9451 102.209C71.7467 102.56 72.6736 102.735 73.7258 102.735C74.9283 102.735 76.1307 102.585 77.3332 102.284C78.5857 101.933 79.8633 101.432 81.166 100.781V104.539C77.3081 108.146 73.6757 110.626 70.2687 111.979C66.8617 113.281 63.0039 113.933 58.695 113.933C54.8372 113.933 51.7308 113.231 49.376 111.828C47.0713 110.376 45.3678 108.146 44.2655 105.14C43.2134 102.084 42.6121 98.2006 42.4618 93.491L43.514 94.1674C42.5119 98.5764 41.0089 102.234 39.0048 105.14C37.0508 108.046 34.6709 110.225 31.8652 111.678C29.1095 113.131 26.0032 113.858 22.5461 113.858C15.2813 113.858 9.69483 112.079 5.78683 108.522C1.92894 104.914 0 100.029 0 93.8667C0 90.7604 0.526076 87.9797 1.57823 85.5247C2.68048 83.0196 4.78479 80.6647 7.89114 78.4602C11.0476 76.2056 15.657 73.8759 21.7194 71.4709C27.8319 69.0159 35.8984 66.2603 45.9189 63.204Z" fill="#030025"/>
</g>
<defs>
<clipPath id="clip0_641_791">
<rect width="287" height="114" fill="white"/>
</clipPath>
</defs>
</svg>
